<svg width="400" height="400" viewBox="0 0 400 400" fill="none" xmlns="http://www.w3.org/2000/svg">
<path d="M331.958 130.646H250.145V110.726H331.958V130.646ZM195.811 208.02C201.945 217.037 204.942 
227.799 204.942 240.425C204.942 250.66 202.982 259.471 199.072 266.886C195.114 274.379 189.733 
280.475 183.099 285.157C176.418 289.889 168.738 293.365 160.145 295.619C151.635 297.88 142.806 
299.019 133.769 299.019H35.9375V97.1934H131.093C140.752 97.1934 149.459 98.0324 157.421 
99.7566C165.346 101.433 172.102 104.232 177.813 108.077C183.429 111.921 187.83 117.029 190.986 
123.484C194.059 129.807 195.604 137.76 195.604 147.156C195.604 157.314 193.295 165.793 188.687 
172.589C184.041 179.355 177.21 184.914 168.088 189.239C180.517 192.802 189.715 199.087 195.811 
208.02ZM80.3773 178.732H125.345C133.223 178.732 139.744 176.876 144.908 173.069C150.016 169.346 
152.494 163.175 152.494 154.722C152.494 150.02 151.673 146.138 150.016 143.132C148.301 140.126 
146.03 137.761 143.165 136.112C140.32 134.396 137.116 133.209 133.384 132.569C129.727 131.853 
125.883 131.579 121.953 131.579H80.3781L80.3773 178.732ZM160.616 237.957C160.616 227.554 157.685 
220.175 151.862 215.69C146.029 211.271 138.255 209.075 128.69 209.075H80.3773V264.653H127.805C132.187 
264.653 136.352 264.267 140.262 263.382C144.238 262.514 147.763 261.138 150.731 259.093C153.709 257.152 
156.168 254.457 157.959 251.046C159.748 247.663 160.616 243.271 160.616 237.957ZM363.807 
235.611H258.354C258.354 247.164 262.255 258.114 268.295 263.973C274.298 269.845 282.995 272.804 294.247 
272.804C302.351 272.804 309.342 270.759 315.213 266.669C321.027 262.6 324.571 258.244 325.938 
253.722H361.284C355.602 271.316 346.988 283.867 335.227 291.434C323.6 299.018 309.428 302.807 
292.909 302.807C281.394 302.807 271.037 300.952 261.737 297.266C252.436 293.554 244.672 288.342 
238.141 281.567C231.772 274.735 226.824 266.669 223.3 257.207C219.813 247.775 218.052 237.363 218.052 
226.065C218.052 215.135 219.879 204.928 223.451 195.477C227.087 186.017 232.129 177.847 238.755 
170.987C245.387 164.107 253.266 158.67 262.434 154.704C271.604 150.736 281.715 148.748 292.909 
148.748C305.272 148.748 316.1 151.131 325.381 155.975C334.634 160.753 342.221 167.236 348.177 
175.35C354.132 183.443 358.373 192.698 361.02 203.082C363.648 213.439 364.562 224.274 363.807 
235.611ZM323.666 210.31C322.704 200.096 319.198 192.52 314.412 187.204C309.643 181.918 301.558 
179.063 291.702 179.063C285.284 179.063 279.979 180.137 275.73 182.341C271.575 184.509 268.172 
187.212 265.572 190.389C262.98 193.622 261.209 197.042 260.181 200.688C259.155 204.242 258.542 
207.473 258.354 210.31H323.666Z" fill="#161616"/>
</svg>
