<svg width="20" height="20" viewBox="0 0 20 20" fill="none" xmlns="http://www.w3.org/2000/svg">
<path d="M17.4394 2.00366C14.78 2.3576 12.253 3.37779 10.0932 4.96951C7.93346 6.56122 6.21088 8.67285 5.08545 11.1083L3.32878 14.9917C3.3157 15.0201 3.30543 15.0498 3.29812 15.0803L2.10278 16.9777C2.00845 17.1272 1.97741 17.3082 2.01648 17.4806C2.05555 17.6531 2.16153 17.803 2.31112 17.8973C2.4607 17.9917 2.64162 18.0227 2.8141 17.9836C2.98657 17.9446 3.13645 17.8386 3.23078 17.689L6.24278 12.8837C6.29207 12.8141 6.36614 12.766 6.44978 12.7494C6.53341 12.7328 6.62024 12.7488 6.6924 12.7942C6.76456 12.8397 6.81656 12.911 6.83771 12.9936C6.85887 13.0762 6.84756 13.1638 6.80611 13.2383L6.01345 14.4977C5.99456 14.5275 5.98565 14.5626 5.98801 14.5979C5.99037 14.6331 6.00388 14.6667 6.02658 14.6938C6.04929 14.7209 6.08001 14.7401 6.11432 14.7486C6.14863 14.757 6.18474 14.7544 6.21745 14.741L8.50945 13.7997C10.1136 13.1593 11.4763 12.0317 12.4054 10.5757C12.4251 10.5453 12.4344 10.5094 12.4319 10.4733C12.4294 10.4372 12.4152 10.403 12.3914 10.3757L10.8734 8.609C10.8527 8.58472 10.8394 8.55501 10.835 8.52339C10.8306 8.49177 10.8353 8.45955 10.8486 8.43053C10.8619 8.40151 10.8833 8.37691 10.9101 8.35963C10.937 8.34235 10.9682 8.33311 11.0001 8.333H13.3334C13.362 8.33276 13.3898 8.32417 13.4135 8.30829C13.4372 8.29242 13.4557 8.26995 13.4668 8.24366C13.7927 7.45751 14.2551 6.73526 14.8328 6.11033L17.8668 2.83966C17.9364 2.76451 17.9812 2.66981 17.9952 2.56836C18.0092 2.46691 17.9917 2.36361 17.9451 2.27243C17.8985 2.18124 17.825 2.10656 17.7345 2.0585C17.6441 2.01043 17.5411 1.99129 17.4394 2.00366Z" fill="#161616" fill-opacity="0.8"/>
</svg>
