<svg width="400" height="400" viewBox="0 0 400 400" fill="none" xmlns="http://www.w3.org/2000/svg">
<path d="M200 50C117.188 50 50 117.188 50 200C50 282.891 117.188 350 200 350C282.812 350 350 282.891 350 200C350 117.188 282.812 50 200 50ZM295.234 119.141C312.109 138.984 322.813 164.141 324.688 191.719C297.656 190.312 265.312 190.312 239.375 192.734C236.094 184.453 232.734 176.328 229.063 168.516C258.984 155.547 282.031 138.516 295.234 119.141ZM200 75C230.312 75 258.125 85.7813 279.766 103.75C266.172 120.938 244.844 135.859 218.281 147.187C203.75 120.312 187.031 97.1875 169.219 78.9844C179.141 76.4844 189.375 75 200 75ZM143.438 88.6719C161.484 106.641 178.437 129.531 193.281 156.328C165.078 164.922 132.734 169.844 98.2031 169.844C91.6406 169.844 85.2344 169.609 78.9062 169.219C87.8906 133.984 111.719 104.766 143.438 88.6719ZM75.2344 194.062C82.3438 194.375 89.5313 194.531 96.7969 194.453C136.172 193.984 172.813 187.812 204.297 177.734C207.266 183.906 210.078 190.234 212.734 196.719C208.437 197.734 204.609 198.828 201.562 200.078C158.516 218.125 124.609 247.266 106.25 282.5C86.875 260.469 75 231.641 75 200C75 197.969 75.0781 196.016 75.2344 194.062ZM200 325C171.094 325 144.531 315.156 123.359 298.672C140 265.703 169.688 238.438 207.109 221.484C210.625 219.844 215.312 218.516 220.703 217.344C225.156 229.688 229.141 242.5 232.656 255.781C238.047 276.484 241.875 296.953 244.219 316.797C230.469 322.031 215.625 325 200 325ZM267.578 305.078C265.234 285 261.406 264.375 255.938 243.438C253.281 233.281 250.234 223.438 246.953 213.828C271.484 211.797 300.859 212.109 324.219 213.828C320 252.188 298.438 285.156 267.578 305.078Z" fill="#EA4C89"/>
</svg>
