<svg width="24" height="24" viewBox="0 0 24 24" fill="none" xmlns="http://www.w3.org/2000/svg">
<path d="M3 8.2636V8.2501C2.99998 6.91669 3.39489 5.61314 4.1349 4.50392C4.87491 3.3947 5.92687 2.5295 7.15805 2.01748C8.38924 1.50546 9.7445 1.36956 11.0528 1.62693C12.3612 1.8843 13.564 2.5234 14.5095 3.4636C15.2534 3.09642 16.0844 2.94204 16.9106 3.01751C17.7367 3.09299 18.526 3.39538 19.1911 3.89129C19.8561 4.38719 20.3712 5.0573 20.6793 5.82758C20.9874 6.59786 21.0766 7.43832 20.937 8.2561C21.1422 8.27515 21.3414 8.3363 21.5219 8.43573C21.7025 8.53517 21.8606 8.67075 21.9865 8.83403C22.1123 8.9973 22.2031 9.18475 22.2533 9.38469C22.3035 9.58463 22.3119 9.79277 22.278 9.9961C21.6 14.0746 19.923 16.6561 17.25 17.7421V18.7501C17.25 19.3468 17.0129 19.9191 16.591 20.3411C16.169 20.763 15.5967 21.0001 15 21.0001H9C8.40326 21.0001 7.83096 20.763 7.40901 20.3411C6.98705 19.9191 6.75 19.3468 6.75 18.7501V17.7421C4.077 16.6561 2.4 14.0746 1.722 9.9961C1.68928 9.79817 1.69659 9.59568 1.74351 9.40062C1.79044 9.20557 1.87601 9.02191 1.99517 8.86051C2.11433 8.69911 2.26466 8.56326 2.43725 8.46099C2.60985 8.35871 2.8012 8.29211 3 8.2651V8.2636ZM4.5 8.2501H6C6 7.25554 6.39509 6.30171 7.09835 5.59845C7.80161 4.89519 8.75544 4.5001 9.75 4.5001C10.7446 4.5001 11.6984 4.89519 12.4016 5.59845C13.1049 6.30171 13.5 7.25554 13.5 8.2501H15C15 6.85771 14.4469 5.52236 13.4623 4.53779C12.4777 3.55322 11.1424 3.0001 9.75 3.0001C8.35761 3.0001 7.02225 3.55322 6.03769 4.53779C5.05312 5.52236 4.5 6.85771 4.5 8.2501ZM7.5 8.2501H12C12 7.65336 11.7629 7.08107 11.341 6.65911C10.919 6.23715 10.3467 6.0001 9.75 6.0001C9.15326 6.0001 8.58096 6.23715 8.15901 6.65911C7.73705 7.08107 7.5 7.65336 7.5 8.2501ZM17.799 8.2501H19.4055C19.5187 7.80681 19.5293 7.34352 19.4364 6.89553C19.3434 6.44754 19.1495 6.02667 18.8692 5.665C18.589 5.30333 18.2299 5.01039 17.8194 4.80852C17.4088 4.60665 16.9575 4.50116 16.5 4.5001C16.14 4.5001 15.798 4.5631 15.48 4.6786C15.7455 5.1046 15.9645 5.5636 16.1325 6.0451C16.4182 5.97424 16.7184 5.98883 16.9959 6.08706C17.2734 6.18529 17.5159 6.36284 17.6934 6.59767C17.8709 6.8325 17.9755 7.11427 17.9943 7.40803C18.013 7.70178 17.9451 7.99459 17.799 8.2501ZM15.75 18.0001H8.25V18.7501C8.25 18.949 8.32902 19.1398 8.46967 19.2804C8.61032 19.4211 8.80109 19.5001 9 19.5001H15C15.1989 19.5001 15.3897 19.4211 15.5303 19.2804C15.671 19.1398 15.75 18.949 15.75 18.7501V18.0001ZM7.722 16.5001H16.278C18.657 15.7351 20.163 13.5721 20.799 9.7501H3.201C3.837 13.5721 5.343 15.7351 7.722 16.5001Z" fill="#161616"/>
</svg>
