<svg width="20" height="20" viewBox="0 0 20 20" fill="none" xmlns="http://www.w3.org/2000/svg">
<path fill-rule="evenodd" clip-rule="evenodd" d="M10 2C14.4184 2 18 5.67194 18 10.2023C18 13.8255 15.7104 16.8992 12.5336 17.9848C12.128 18.0656 11.984 17.8094 11.984 17.591C11.984 17.3206 11.9936 16.4374 11.9936 15.3398C11.9936 14.575 11.7376 14.0759 11.4504 13.8215C13.232 13.6183 15.104 12.9246 15.104 9.77422C15.104 8.87822 14.7936 8.14705 14.28 7.57266C14.3632 7.36546 14.6376 6.53116 14.2016 5.40156C14.2016 5.40156 13.5312 5.18178 12.004 6.24258C11.3648 6.06098 10.68 5.96961 10 5.96641C9.32 5.96961 8.636 6.06098 7.9976 6.24258C6.4688 5.18178 5.7968 5.40156 5.7968 5.40156C5.3624 6.53116 5.6368 7.36546 5.7192 7.57266C5.208 8.14705 4.8952 8.87822 4.8952 9.77422C4.8952 12.9166 6.7632 13.6209 8.54 13.8281C8.3112 14.0329 8.104 14.3942 8.032 14.9246C7.576 15.1342 6.4176 15.497 5.704 14.2434C5.704 14.2434 5.2808 13.4553 4.4776 13.3977C4.4776 13.3977 3.6976 13.3873 4.4232 13.8961C4.4232 13.8961 4.9472 14.1481 5.3112 15.0961C5.3112 15.0961 5.7808 16.5601 8.0064 16.0641C8.0104 16.7497 8.0176 17.3958 8.0176 17.591C8.0176 17.8078 7.8704 18.0615 7.4712 17.9855C4.292 16.9015 2 13.8263 2 10.2023C2 5.67194 5.5824 2 10 2Z" fill="#161616"/>
</svg>
