<svg width="24" height="24" viewBox="0 0 24 24" fill="none" xmlns="http://www.w3.org/2000/svg">
<path d="M7.22476 5.97594H10.038V13.8614C10.038 17.4149 8.33476 18.6554 5.61376 18.6554C4.94776 18.6554 4.09576 18.5444 3.54076 18.3592L3.85576 16.0822C4.24426 16.2119 4.74451 16.3042 5.29951 16.3042C6.48451 16.3042 7.22476 15.7672 7.22476 13.8427V5.97594ZM12.4808 15.5647C13.221 15.9532 14.406 16.3424 15.609 16.3424C16.905 16.3424 17.5898 15.8054 17.5898 14.9729C17.5898 14.2139 16.9973 13.7512 15.498 13.2329C13.425 12.4927 12.0555 11.3452 12.0555 9.51219C12.0555 7.38369 13.851 5.77344 16.7753 5.77344C18.2003 5.77344 19.2188 6.05094 19.959 6.40269L19.3298 8.66094C18.8483 8.42019 17.9415 8.06844 16.7385 8.06844C15.5168 8.06844 14.9243 8.64219 14.9243 9.27144C14.9243 10.0672 15.609 10.4189 17.238 11.0482C19.4408 11.8627 20.4585 13.0102 20.4585 14.7869C20.4585 16.8787 18.867 18.6554 15.4425 18.6554C14.0175 18.6554 12.6105 18.2669 11.907 17.8777L12.4808 15.5647Z" fill="white"/>
</svg>
