<svg width="400" height="400" viewBox="0 0 400 400" fill="none" xmlns="http://www.w3.org/2000/svg">
<path d="M62.4847 152.868H122.961V334.86H62.4847V152.868ZM93.1275 65.1396C72.4291 65.1396 58.9062 78.7283 58.9062 96.5639C58.9062 114.033 72.0333 128.016 92.3361 128.016H92.7217C113.816 128.016 126.952 114.032 126.952 96.5639C126.557 78.7283 113.817 65.1396 93.1275 65.1396ZM271.447 148.593C239.345 148.593 224.964 166.249 216.941 178.632V152.868H156.446C157.247 169.941 156.446 334.86 156.446 334.86H216.941V233.223C216.941 227.779 217.336 222.356 218.928 218.456C223.308 207.589 233.261 196.336 249.957 196.336C271.861 196.336 280.609 213.033 280.609 237.487V334.859H341.094V230.502C341.094 174.602 311.261 148.593 271.447 148.593Z" fill="#161616"/>
</svg>
