<svg width="80" height="24" viewBox="0 0 80 24" fill="none" xmlns="http://www.w3.org/2000/svg">
<path d="M50.5475 5.55273H61.6959V7.61044H57.2735V18.4358H55.0621V7.61044H50.5475V5.55273Z" fill="white"/>
<path d="M32.2126 5.55273V7.61044H23.2764V10.9207H30.4629V12.9784H23.2764V16.3781H32.2126V18.4358H21.0652V7.61044H21.0642V5.55273H32.2126Z" fill="white"/>
<path d="M37.7792 5.55762H34.8854L45.2505 18.4407H48.1528L42.9696 12.0036L48.1445 5.56745L45.2505 5.57192L41.5207 10.2042L37.7792 5.55762Z" fill="white"/>
<path d="M40.7488 14.7599L39.2996 12.958L34.8771 18.4503H37.7793L40.7488 14.7599Z" fill="white"/>
<path fill-rule="evenodd" clip-rule="evenodd" d="M21.1426 18.4353L10.7636 5.54688H7.99951V18.4299H10.2108V8.30062L18.3647 18.4353H21.1426Z" fill="white"/>
<path d="M62.193 18.3566C62.0311 18.3566 61.8933 18.3005 61.778 18.1883C61.6626 18.0761 61.6056 17.9403 61.6071 17.7794C61.6056 17.6229 61.6626 17.4885 61.778 17.3763C61.8933 17.2641 62.0311 17.208 62.193 17.208C62.3488 17.208 62.4851 17.2641 62.6004 17.3763C62.7174 17.4885 62.7757 17.6229 62.7774 17.7794C62.7757 17.8857 62.7488 17.9831 62.6948 18.0702C62.6394 18.1588 62.5691 18.2282 62.4806 18.2784C62.3937 18.3301 62.2978 18.3566 62.193 18.3566Z" fill="white"/>
<path d="M65.9672 12.9297H66.9471V16.7048C66.9456 17.0518 66.8706 17.3486 66.7239 17.5981C66.5756 17.8476 66.3702 18.038 66.1066 18.1724C65.8444 18.3052 65.5372 18.3732 65.1881 18.3732C64.8689 18.3732 64.5828 18.3156 64.3281 18.2034C64.0734 18.0912 63.8711 17.9229 63.7228 17.7014C63.5729 17.4799 63.4995 17.2039 63.4995 16.8732H64.481C64.4824 17.0179 64.5154 17.1433 64.5783 17.2482C64.6411 17.353 64.728 17.4327 64.839 17.4888C64.9512 17.5449 65.0802 17.573 65.2255 17.573C65.3829 17.573 65.5177 17.5405 65.627 17.474C65.7364 17.4091 65.8203 17.3116 65.8788 17.1817C65.9357 17.0533 65.9657 16.8938 65.9672 16.7048V12.9297Z" fill="white"/>
<path d="M70.9789 14.4062C70.955 14.1773 70.8501 13.9987 70.6673 13.8717C70.483 13.7433 70.2448 13.6798 69.9526 13.6798C69.7474 13.6798 69.5707 13.7108 69.4238 13.7713C69.277 13.8333 69.1631 13.916 69.0851 14.0208C69.0073 14.1256 68.9683 14.2452 68.9652 14.3796C68.9652 14.4918 68.9922 14.5892 69.0447 14.6704C69.0971 14.7531 69.1675 14.8225 69.2589 14.8786C69.3488 14.9362 69.4492 14.9834 69.5586 15.0218C69.6694 15.0602 69.7804 15.0927 69.8912 15.1193L70.4021 15.2448C70.6074 15.292 70.8067 15.3555 70.997 15.4367C71.1872 15.5164 71.3595 15.6183 71.5108 15.7408C71.6622 15.8634 71.7821 16.011 71.8704 16.1838C71.9588 16.3565 72.0038 16.5588 72.0038 16.792C72.0038 17.1065 71.9229 17.3826 71.7595 17.6218C71.5962 17.8594 71.361 18.0455 71.0523 18.1798C70.7452 18.3127 70.3736 18.3806 69.9362 18.3806C69.5136 18.3806 69.1451 18.3157 68.8349 18.1858C68.5234 18.0573 68.2805 17.8683 68.1052 17.6203C67.9299 17.3723 67.8356 17.0696 67.8221 16.7138H68.793C68.8065 16.8998 68.8665 17.0548 68.9683 17.1803C69.0716 17.3043 69.2065 17.3959 69.3713 17.4579C69.5377 17.5184 69.7234 17.5494 69.9287 17.5494C70.143 17.5494 70.3317 17.5169 70.495 17.4534C70.6568 17.39 70.7841 17.3014 70.8756 17.1862C70.9685 17.0725 71.015 16.9382 71.0164 16.7846C71.015 16.6444 70.9729 16.5277 70.892 16.4362C70.8097 16.3447 70.6958 16.2679 70.5504 16.2059C70.4037 16.1439 70.2328 16.0878 70.038 16.0391L69.4178 15.8826C68.9698 15.7689 68.6147 15.5962 68.3554 15.3644C68.0948 15.1326 67.9658 14.8255 67.9658 14.4401C67.9658 14.1242 68.0528 13.8466 68.2282 13.6089C68.4019 13.3712 68.6402 13.1867 68.9413 13.0553C69.244 12.9224 69.5856 12.8574 69.9661 12.8574C70.3527 12.8574 70.6912 12.9224 70.9835 13.0553C71.2755 13.1867 71.5049 13.3697 71.6711 13.603C71.8375 13.8363 71.9244 14.1035 71.9289 14.4062H70.9789Z" fill="white"/>
</svg>
