<svg width="24" height="24" viewBox="0 0 24 24" fill="none" xmlns="http://www.w3.org/2000/svg">
<path d="M19.7777 12.0931C19.7777 13.934 16.2955 15.4265 11.9999 15.4265C7.7044 15.4265 4.22217 13.934 4.22217 12.0931C4.22217 10.2521 7.7044 8.75977 11.9999 8.75977C16.2955 8.75977 19.7777 10.2521 19.7777 12.0931Z" stroke="white" stroke-width="1.25"/>
<path d="M8.29581 18.9315C9.91453 19.8084 12.8853 17.4573 14.9313 13.6803C16.9772 9.90326 17.3235 6.13058 15.7048 5.25374C14.0861 4.37691 11.1153 6.72799 9.06934 10.505C7.02341 14.282 6.67709 18.0548 8.29581 18.9315Z" stroke="white" stroke-width="1.25"/>
<path d="M15.7048 18.9315C14.0861 19.8084 11.1153 17.4573 9.06934 13.6803C7.02341 9.90326 6.67709 6.13058 8.29581 5.25374C9.91453 4.37691 12.8853 6.72799 14.9312 10.505C16.9772 14.282 17.3235 18.0548 15.7048 18.9315Z" stroke="white" stroke-width="1.25"/>
<path d="M10.8887 12.0935C10.8887 12.7072 11.3861 13.2046 11.9998 13.2046C12.6134 13.2046 13.1109 12.7072 13.1109 12.0935C13.1109 11.4799 12.6134 10.9824 11.9998 10.9824C11.3861 10.9824 10.8887 11.4799 10.8887 12.0935Z" fill="white" stroke="white" stroke-width="1.25"/>
</svg>
