<svg width="24" height="24" viewBox="0 0 24 24" fill="none" xmlns="http://www.w3.org/2000/svg">
<path d="M4.38193 3.42969L5.81017 18.9042L12 20.5705L18.1896 18.9042L19.6183 3.42969H4.38193ZM16.5504 8.44497L11.9945 10.3928L11.9834 10.3974H11.9945H16.3896L15.8856 16.1924L12.0014 17.3264L11.9945 17.3242V17.3264L8.08921 16.1715L7.83721 13.2531H7.84393H9.76873H9.77569L9.90169 14.7649L11.9767 15.2888L11.9945 15.2838V15.2862L14.143 14.6811L14.2901 12.2456L11.9945 12.2386L7.71121 12.2242L7.56433 10.3976L11.9945 8.55249L12.2527 8.44521H11.9945H7.39633L7.16521 6.57609H11.9945H16.7395L16.5504 8.44497Z" fill="white"/>
</svg>
