<svg width="25" height="25" viewBox="0 0 25 25" fill="none" xmlns="http://www.w3.org/2000/svg">
<path d="M18.6792 9.66303C17.927 9.41133 17.261 8.95273 16.7575 8.33984C16.2026 7.65691 15.4988 7.10997 14.6999 6.74085C13.9011 6.37173 13.0284 6.19022 12.1487 6.21019C10.9644 6.13676 9.79582 6.51209 8.87578 7.26146C7.95574 8.01082 7.3517 9.07923 7.18396 10.2539C7.52947 9.6641 8.0532 9.19911 8.67976 8.92585C9.30633 8.6526 10.0034 8.58516 10.6708 8.73326C11.4217 8.99249 12.0867 9.45379 12.5925 10.0664C13.1505 10.7439 13.8555 11.2851 14.6542 11.6489C15.4528 12.0128 16.3239 12.1896 17.2011 12.1661C18.3854 12.2395 19.554 11.8642 20.474 11.1148C21.3941 10.3655 21.9981 9.29706 22.1658 8.12238C21.8268 8.71915 21.3048 9.19108 20.677 9.46849C20.0491 9.74591 19.3488 9.81411 18.6792 9.66303ZM5.72342 14.7569C6.4756 15.0086 7.14162 15.4672 7.6451 16.0801C8.20006 16.763 8.90388 17.31 9.70271 17.6791C10.5015 18.0482 11.3742 18.2297 12.254 18.2097C13.4383 18.2832 14.6068 17.9078 15.5269 17.1585C16.4469 16.4091 17.0509 15.3407 17.2187 14.166C16.8732 14.7558 16.3494 15.2208 15.7229 15.4941C15.0963 15.7673 14.3992 15.8348 13.7319 15.6867C12.9809 15.4274 12.3159 14.9661 11.8101 14.3535C11.2507 13.6778 10.5453 13.1378 9.74708 12.7741C8.94882 12.4104 8.07846 12.2325 7.20151 12.2538C6.01719 12.1804 4.84865 12.5557 3.92861 13.3051C3.00858 14.0545 2.40454 15.1229 2.2368 16.2975C2.57588 15.7008 3.09786 15.2288 3.72568 14.9514C4.35349 14.674 5.05387 14.6058 5.72342 14.7569Z" fill="white"/>
</svg>
