<svg width="24" height="24" viewBox="0 0 24 24" fill="none" xmlns="http://www.w3.org/2000/svg">
<path d="M17.8703 6.18197C18.5087 6.3305 19.0889 6.66481 19.5375 7.14272C19.7846 7.40137 19.9992 7.68925 20.1765 7.99997C20.1848 8.03372 19.026 8.81222 18.3233 9.24647C18.2978 9.26372 18.1965 9.15347 18.0818 8.98397C17.9534 8.7633 17.7712 8.57877 17.5521 8.44761C17.3331 8.31645 17.0844 8.24295 16.8293 8.23397C16.0215 8.17847 15.501 8.60147 15.5048 9.30872C15.4978 9.48247 15.5374 9.65493 15.6195 9.80822C15.7973 10.1757 16.1273 10.3962 17.1638 10.8455C19.0718 11.6667 19.8908 12.2082 20.3963 12.9777C20.682 13.4639 20.858 14.0067 20.9119 14.5681C20.9658 15.1294 20.8963 15.6958 20.7083 16.2275C20.4499 16.8105 20.0401 17.3138 19.5215 17.6851C19.003 18.0563 18.3945 18.282 17.7593 18.3387C17.084 18.4162 16.4018 18.4091 15.7283 18.3177C14.6966 18.1482 13.7463 17.6531 13.0163 16.9047C12.7404 16.5941 12.5069 16.2484 12.3218 15.8765C12.3996 15.8186 12.4816 15.7664 12.567 15.7205C12.6855 15.653 13.134 15.395 13.557 15.1497L14.325 14.6997L14.4855 14.9337C14.7558 15.3203 15.0999 15.6496 15.498 15.9027C15.9 16.1232 16.3554 16.2277 16.8134 16.2046C17.2713 16.1814 17.7138 16.0314 18.0915 15.7715C18.2863 15.5816 18.4081 15.3292 18.4356 15.0585C18.463 14.7878 18.3943 14.5161 18.2415 14.291C18.0345 13.9947 17.6115 13.7457 16.4093 13.2245C15.4665 12.9066 14.6079 12.3797 13.8975 11.6832C13.5592 11.2977 13.3094 10.8428 13.1655 10.3505C13.0591 9.78961 13.0434 9.21531 13.119 8.64947C13.2601 7.99835 13.598 7.40636 14.0869 6.95372C14.5758 6.50107 15.192 6.20966 15.852 6.11897C16.5241 6.03866 17.2045 6.0599 17.8703 6.18197ZM11.613 7.29422L11.6213 8.38472H8.14876V18.2457H5.70001V8.38697H2.22751V7.31597C2.21827 6.9492 2.22828 6.58219 2.25751 6.21647C2.27026 6.19922 4.38151 6.19097 6.94126 6.19547L11.5995 6.20822L11.613 7.29422Z" fill="white"/>
</svg>
